<svg width="500" height="500" viewBox="0 0 500 500" fill="none" xmlns="http://www.w3.org/2000/svg">
<rect width="500" height="500" rx="50" fill="white"/>
<path d="M304.933 243.696C304.933 294.285 275.996 311.126 249.933 311.126C223.87 311.126 195 294.285 195 243.696V192.372C195 141.849 223.937 124.941 250 124.941C276.063 124.941 305 141.782 305 192.372V243.696H304.933ZM250 153.544C239.374 153.544 225.808 160.16 225.808 183.617V252.517C225.808 275.974 239.374 282.59 250 282.59C260.626 282.59 274.192 275.974 274.192 252.517V183.617C274.192 160.16 260.626 153.544 250 153.544Z" fill="#333333"/>
<path d="M225.808 425.612V390.193C225.808 366.736 239.374 360.12 250 360.12C260.626 360.12 274.192 366.736 274.192 390.193V425.612H305V399.014C305 348.425 276.063 331.584 250 331.584C223.937 331.584 195 348.425 195 399.014V425.612H225.808Z" fill="#333333"/>
<path d="M304.53 406.69V428.276C304.53 433.622 302.726 435.426 297.379 435.426H281.608C276.261 435.426 274.457 433.622 274.457 428.276V401.01" fill="#333333"/>
<path d="M225.611 406.289V428.142C225.611 433.555 223.806 435.426 218.326 435.426H202.421C197.008 435.426 195.137 433.622 195.137 428.142V400.475" fill="#333333"/>
<path d="M260.442 108.572V72.6853C260.442 66.4702 262.647 65 268.127 65H286.839C292.319 65 294.19 67.9405 291.584 74.8906L280.557 106.033C278.753 111.513 278.018 112.248 274.342 112.248H264.051C261.511 112.248 260.375 111.179 260.375 108.572H260.442Z" fill="#333333"/>
</svg>
